<?xml version="1.0" encoding="UTF-8" standalone="no"?>
<!DOCTYPE svg PUBLIC "-//W3C//DTD SVG 1.1//EN"
 "http://www.w3.org/Graphics/SVG/1.1/DTD/svg11.dtd">
<!-- Generated by graphviz version 2.40.1 (20161225.0304)
 -->
<!-- Title: state transitions Pages: 1 -->
<svg width="120pt" height="680pt"
 viewBox="0.00 0.00 120.00 680.00" xmlns="http://www.w3.org/2000/svg" xmlns:xlink="http://www.w3.org/1999/xlink">
<g id="graph0" class="graph" transform="scale(1 1) rotate(0) translate(4 676)">
<title>state transitions</title>
<polygon fill="#ffffff" stroke="transparent" points="-4,4 -4,-676 116,-676 116,4 -4,4"/>
<g id="clust1" class="cluster state regular">
<title>cluster_next_state</title>
<path fill="none" stroke="#000000" stroke-width="2" d="M20,-8C20,-8 92,-8 92,-8 98,-8 104,-14 104,-20 104,-20 104,-652 104,-652 104,-658 98,-664 92,-664 92,-664 20,-664 20,-664 14,-664 8,-658 8,-652 8,-652 8,-20 8,-20 8,-14 14,-8 20,-8"/>
<text text-anchor="start" x="28.8208" y="-645.2" font-family="Helvetica,sans-Serif" font-size="12.00" fill="#000000">next_state</text>
</g>
<!-- next_state -->
<!-- s0 -->
<g id="node2" class="node state regular">
<title>s0</title>
<polygon fill="#ffffff" fill-opacity="0.003922" stroke="transparent" stroke-width="2" points="73,-626 17,-626 17,-590 73,-590 73,-626"/>
<text text-anchor="start" x="38.6646" y="-604.2" font-family="Helvetica,sans-Serif" font-size="12.00" fill="#000000">s0</text>
<path fill="none" stroke="#000000" stroke-width="2" d="M29.3333,-591C29.3333,-591 60.6667,-591 60.6667,-591 66.3333,-591 72,-596.6667 72,-602.3333 72,-602.3333 72,-613.6667 72,-613.6667 72,-619.3333 66.3333,-625 60.6667,-625 60.6667,-625 29.3333,-625 29.3333,-625 23.6667,-625 18,-619.3333 18,-613.6667 18,-613.6667 18,-602.3333 18,-602.3333 18,-596.6667 23.6667,-591 29.3333,-591"/>
</g>
<!-- s2 -->
<g id="node3" class="node state regular">
<title>s2</title>
<polygon fill="#ffffff" fill-opacity="0.003922" stroke="transparent" stroke-width="2" points="72,-544 16,-544 16,-508 72,-508 72,-544"/>
<text text-anchor="start" x="37.6646" y="-522.2" font-family="Helvetica,sans-Serif" font-size="12.00" fill="#000000">s2</text>
<path fill="none" stroke="#000000" stroke-width="2" d="M28.3333,-509C28.3333,-509 59.6667,-509 59.6667,-509 65.3333,-509 71,-514.6667 71,-520.3333 71,-520.3333 71,-531.6667 71,-531.6667 71,-537.3333 65.3333,-543 59.6667,-543 59.6667,-543 28.3333,-543 28.3333,-543 22.6667,-543 17,-537.3333 17,-531.6667 17,-531.6667 17,-520.3333 17,-520.3333 17,-514.6667 22.6667,-509 28.3333,-509"/>
</g>
<!-- s0&#45;&gt;s2 -->
<g id="edge1" class="edge transition">
<title>s0&#45;&gt;s2</title>
<path fill="none" stroke="#000000" d="M44.7781,-589.8015C44.6512,-579.3976 44.4893,-566.1215 44.3461,-554.3768"/>
<polygon fill="#000000" stroke="#000000" points="47.8431,-554.1041 44.2213,-544.1476 40.8436,-554.1896 47.8431,-554.1041"/>
<text text-anchor="middle" x="45.3895" y="-564" font-family="Helvetica,sans-Serif" font-size="10.00" fill="#000000"> </text>
</g>
<!-- s4 -->
<g id="node4" class="node state regular">
<title>s4</title>
<polygon fill="#ffffff" fill-opacity="0.003922" stroke="transparent" stroke-width="2" points="72,-462 16,-462 16,-426 72,-426 72,-462"/>
<text text-anchor="start" x="37.6646" y="-440.2" font-family="Helvetica,sans-Serif" font-size="12.00" fill="#000000">s4</text>
<path fill="none" stroke="#000000" stroke-width="2" d="M28.3333,-427C28.3333,-427 59.6667,-427 59.6667,-427 65.3333,-427 71,-432.6667 71,-438.3333 71,-438.3333 71,-449.6667 71,-449.6667 71,-455.3333 65.3333,-461 59.6667,-461 59.6667,-461 28.3333,-461 28.3333,-461 22.6667,-461 17,-455.3333 17,-449.6667 17,-449.6667 17,-438.3333 17,-438.3333 17,-432.6667 22.6667,-427 28.3333,-427"/>
</g>
<!-- s2&#45;&gt;s4 -->
<g id="edge2" class="edge transition">
<title>s2&#45;&gt;s4</title>
<path fill="none" stroke="#000000" d="M44,-507.8015C44,-497.3976 44,-484.1215 44,-472.3768"/>
<polygon fill="#000000" stroke="#000000" points="47.5001,-472.1476 44,-462.1476 40.5001,-472.1476 47.5001,-472.1476"/>
<text text-anchor="middle" x="45.3895" y="-482" font-family="Helvetica,sans-Serif" font-size="10.00" fill="#000000"> </text>
</g>
<!-- s6 -->
<g id="node5" class="node state regular">
<title>s6</title>
<polygon fill="#ffffff" fill-opacity="0.003922" stroke="transparent" stroke-width="2" points="72,-380 16,-380 16,-344 72,-344 72,-380"/>
<text text-anchor="start" x="37.6646" y="-358.2" font-family="Helvetica,sans-Serif" font-size="12.00" fill="#000000">s6</text>
<path fill="none" stroke="#000000" stroke-width="2" d="M28.3333,-345C28.3333,-345 59.6667,-345 59.6667,-345 65.3333,-345 71,-350.6667 71,-356.3333 71,-356.3333 71,-367.6667 71,-367.6667 71,-373.3333 65.3333,-379 59.6667,-379 59.6667,-379 28.3333,-379 28.3333,-379 22.6667,-379 17,-373.3333 17,-367.6667 17,-367.6667 17,-356.3333 17,-356.3333 17,-350.6667 22.6667,-345 28.3333,-345"/>
</g>
<!-- s4&#45;&gt;s6 -->
<g id="edge3" class="edge transition">
<title>s4&#45;&gt;s6</title>
<path fill="none" stroke="#000000" d="M44,-425.8015C44,-415.3976 44,-402.1215 44,-390.3768"/>
<polygon fill="#000000" stroke="#000000" points="47.5001,-390.1476 44,-380.1476 40.5001,-390.1476 47.5001,-390.1476"/>
<text text-anchor="middle" x="45.3895" y="-400" font-family="Helvetica,sans-Serif" font-size="10.00" fill="#000000"> </text>
</g>
<!-- s8 -->
<g id="node6" class="node state regular">
<title>s8</title>
<polygon fill="#ffffff" fill-opacity="0.003922" stroke="transparent" stroke-width="2" points="72,-298 16,-298 16,-262 72,-262 72,-298"/>
<text text-anchor="start" x="37.6646" y="-276.2" font-family="Helvetica,sans-Serif" font-size="12.00" fill="#000000">s8</text>
<path fill="none" stroke="#000000" stroke-width="2" d="M28.3333,-263C28.3333,-263 59.6667,-263 59.6667,-263 65.3333,-263 71,-268.6667 71,-274.3333 71,-274.3333 71,-285.6667 71,-285.6667 71,-291.3333 65.3333,-297 59.6667,-297 59.6667,-297 28.3333,-297 28.3333,-297 22.6667,-297 17,-291.3333 17,-285.6667 17,-285.6667 17,-274.3333 17,-274.3333 17,-268.6667 22.6667,-263 28.3333,-263"/>
</g>
<!-- s6&#45;&gt;s8 -->
<g id="edge4" class="edge transition">
<title>s6&#45;&gt;s8</title>
<path fill="none" stroke="#000000" d="M44,-343.8015C44,-333.3976 44,-320.1215 44,-308.3768"/>
<polygon fill="#000000" stroke="#000000" points="47.5001,-308.1476 44,-298.1476 40.5001,-308.1476 47.5001,-308.1476"/>
<text text-anchor="middle" x="45.3895" y="-318" font-family="Helvetica,sans-Serif" font-size="10.00" fill="#000000"> </text>
</g>
<!-- s10 -->
<g id="node7" class="node state regular">
<title>s10</title>
<polygon fill="#ffffff" fill-opacity="0.003922" stroke="transparent" stroke-width="2" points="72,-216 16,-216 16,-180 72,-180 72,-216"/>
<text text-anchor="start" x="34.3292" y="-194.2" font-family="Helvetica,sans-Serif" font-size="12.00" fill="#000000">s10</text>
<path fill="none" stroke="#000000" stroke-width="2" d="M28.3333,-181C28.3333,-181 59.6667,-181 59.6667,-181 65.3333,-181 71,-186.6667 71,-192.3333 71,-192.3333 71,-203.6667 71,-203.6667 71,-209.3333 65.3333,-215 59.6667,-215 59.6667,-215 28.3333,-215 28.3333,-215 22.6667,-215 17,-209.3333 17,-203.6667 17,-203.6667 17,-192.3333 17,-192.3333 17,-186.6667 22.6667,-181 28.3333,-181"/>
</g>
<!-- s8&#45;&gt;s10 -->
<g id="edge5" class="edge transition">
<title>s8&#45;&gt;s10</title>
<path fill="none" stroke="#000000" d="M44,-261.8015C44,-251.3976 44,-238.1215 44,-226.3768"/>
<polygon fill="#000000" stroke="#000000" points="47.5001,-226.1476 44,-216.1476 40.5001,-226.1476 47.5001,-226.1476"/>
<text text-anchor="middle" x="45.3895" y="-236" font-family="Helvetica,sans-Serif" font-size="10.00" fill="#000000"> </text>
</g>
<!-- s12 -->
<g id="node8" class="node state regular">
<title>s12</title>
<polygon fill="#ffffff" fill-opacity="0.003922" stroke="transparent" stroke-width="2" points="72,-134 16,-134 16,-98 72,-98 72,-134"/>
<text text-anchor="start" x="34.3292" y="-112.2" font-family="Helvetica,sans-Serif" font-size="12.00" fill="#000000">s12</text>
<path fill="none" stroke="#000000" stroke-width="2" d="M28.3333,-99C28.3333,-99 59.6667,-99 59.6667,-99 65.3333,-99 71,-104.6667 71,-110.3333 71,-110.3333 71,-121.6667 71,-121.6667 71,-127.3333 65.3333,-133 59.6667,-133 59.6667,-133 28.3333,-133 28.3333,-133 22.6667,-133 17,-127.3333 17,-121.6667 17,-121.6667 17,-110.3333 17,-110.3333 17,-104.6667 22.6667,-99 28.3333,-99"/>
</g>
<!-- s10&#45;&gt;s12 -->
<g id="edge6" class="edge transition">
<title>s10&#45;&gt;s12</title>
<path fill="none" stroke="#000000" d="M44,-179.8015C44,-169.3976 44,-156.1215 44,-144.3768"/>
<polygon fill="#000000" stroke="#000000" points="47.5001,-144.1476 44,-134.1476 40.5001,-144.1476 47.5001,-144.1476"/>
<text text-anchor="middle" x="45.3895" y="-154" font-family="Helvetica,sans-Serif" font-size="10.00" fill="#000000"> </text>
</g>
<!-- s14 -->
<g id="node9" class="node state regular">
<title>s14</title>
<polygon fill="#ffffff" fill-opacity="0.003922" stroke="transparent" stroke-width="2" points="84,-52 28,-52 28,-16 84,-16 84,-52"/>
<text text-anchor="start" x="46.3292" y="-30.2" font-family="Helvetica,sans-Serif" font-size="12.00" fill="#000000">s14</text>
<path fill="none" stroke="#000000" stroke-width="2" d="M40.3333,-17C40.3333,-17 71.6667,-17 71.6667,-17 77.3333,-17 83,-22.6667 83,-28.3333 83,-28.3333 83,-39.6667 83,-39.6667 83,-45.3333 77.3333,-51 71.6667,-51 71.6667,-51 40.3333,-51 40.3333,-51 34.6667,-51 29,-45.3333 29,-39.6667 29,-39.6667 29,-28.3333 29,-28.3333 29,-22.6667 34.6667,-17 40.3333,-17"/>
</g>
<!-- s12&#45;&gt;s14 -->
<g id="edge7" class="edge transition">
<title>s12&#45;&gt;s14</title>
<path fill="none" stroke="#000000" d="M46.6632,-97.8015C48.1857,-87.3976 50.1286,-74.1215 51.8473,-62.3768"/>
<polygon fill="#000000" stroke="#000000" points="55.3593,-62.549 53.3443,-52.1476 48.4331,-61.5354 55.3593,-62.549"/>
<text text-anchor="middle" x="51.3895" y="-72" font-family="Helvetica,sans-Serif" font-size="10.00" fill="#000000"> </text>
</g>
<!-- s14&#45;&gt;s0 -->
<g id="edge8" class="edge transition">
<title>s14&#45;&gt;s0</title>
<path fill="none" stroke="#000000" d="M83.9285,-52.2078C90.1797,-58.4661 95,-66.1584 95,-75 95,-253.5 95,-253.5 95,-253.5 95,-313.5 95,-328.5 95,-388.5 95,-567 95,-567 95,-567 95,-576.6454 89.3675,-584.4348 81.8835,-590.5275"/>
<polygon fill="#000000" stroke="#000000" points="79.4769,-587.9343 73.2147,-596.4804 83.4395,-593.7048 79.4769,-587.9343"/>
<text text-anchor="middle" x="96.3895" y="-318" font-family="Helvetica,sans-Serif" font-size="10.00" fill="#000000"> </text>
</g>
</g>
</svg>
