<svg xmlns="http://www.w3.org/2000/svg" xmlns:xlink="http://www.w3.org/1999/xlink" xmlns:s="https://github.com/nturley/netlistsvg" width="496" height="507"><style>svg {
  stroke:#000;
  fill:none;
}
text {
  fill:#000;
  stroke:none;
  font-size:10px;
  font-weight: bold;
  font-family: "Courier New", monospace;
}
line {
    stroke-linecap: round;
}
.nodelabel {
  text-anchor: middle;
}
.inputPortLabel {
  text-anchor: end;
}
.splitjoinBody {
  fill:#000;
}</style><g s:type="and" transform="translate(312.6666666666667,358)" s:width="30" s:height="25" id="cell_:10"><s:alias val="$and"/><s:alias val="$logic_and"/><s:alias val="$_AND_"/><path d="M0,0 L0,25 L15,25 A15 12.5 0 0 0 15,0 Z" fill="#eebaff" class="cell_:10"/><g s:x="0" s:y="5" s:pid="A"/><g s:x="0" s:y="20" s:pid="B"/><g s:x="30" s:y="12.5" s:pid="Y"/></g><g s:type="not" transform="translate(181,260.5)" s:width="30" s:height="20" id="cell_:11"><s:alias val="$_NOT_"/><s:alias val="$not"/><s:alias val="$logic_not"/><path d="M0,0 L0,20 L20,10 Z" fill="#eebaff" class="cell_:11"/><circle cx="24" cy="10" r="3" fill="#eebaff" class="cell_:11"/><g s:x="-1" s:y="10" s:pid="A"/><g s:x="27" s:y="10" s:pid="Y"/></g><g s:type="and" transform="translate(246.66666666666666,270.5)" s:width="30" s:height="25" id="cell_:12"><s:alias val="$and"/><s:alias val="$logic_and"/><s:alias val="$_AND_"/><path d="M0,0 L0,25 L15,25 A15 12.5 0 0 0 15,0 Z" fill="#eebaff" class="cell_:12"/><g s:x="0" s:y="5" s:pid="A"/><g s:x="0" s:y="20" s:pid="B"/><g s:x="30" s:y="12.5" s:pid="Y"/></g><g s:type="and" transform="translate(180.66666666666666,183)" s:width="30" s:height="25" id="cell_:13"><s:alias val="$and"/><s:alias val="$logic_and"/><s:alias val="$_AND_"/><path d="M0,0 L0,25 L15,25 A15 12.5 0 0 0 15,0 Z" fill="#eebaff" class="cell_:13"/><g s:x="0" s:y="5" s:pid="A"/><g s:x="0" s:y="20" s:pid="B"/><g s:x="30" s:y="12.5" s:pid="Y"/></g><g s:type="not" transform="translate(181,128)" s:width="30" s:height="20" id="cell_:14"><s:alias val="$_NOT_"/><s:alias val="$not"/><s:alias val="$logic_not"/><path d="M0,0 L0,20 L20,10 Z" fill="#eebaff" class="cell_:14"/><circle cx="24" cy="10" r="3" fill="#eebaff" class="cell_:14"/><g s:x="-1" s:y="10" s:pid="A"/><g s:x="27" s:y="10" s:pid="Y"/></g><g s:type="mux" transform="translate(250,108)" s:width="20" s:height="40" id="cell_:15"><s:alias val="$pmux"/><s:alias val="$mux"/><s:alias val="$_MUX_"/><path d="M0,0 L20,10 L20,30 L0,40 Z" fill="#ffffff" class="cell_:15"/><text x="5" y="32" class="nodelabel cell_:15" s:attribute="">1</text><text x="5" y="13" class="nodelabel cell_:15" s:attribute="">0</text><g s:x="0" s:y="10" s:pid="A"/><g s:x="0" s:y="30" s:pid="B"/><g s:x="10" s:y="35" s:pid="S"/><g s:x="20" s:y="20" s:pid="Y"/></g><g s:type="mux" transform="translate(316,195.5)" s:width="20" s:height="40" id="cell_:17"><s:alias val="$pmux"/><s:alias val="$mux"/><s:alias val="$_MUX_"/><path d="M0,0 L20,10 L20,30 L0,40 Z" fill="#ffffff" class="cell_:17"/><text x="5" y="32" class="nodelabel cell_:17" s:attribute="">1</text><text x="5" y="13" class="nodelabel cell_:17" s:attribute="">0</text><g s:x="0" s:y="10" s:pid="A"/><g s:x="0" s:y="30" s:pid="B"/><g s:x="10" s:y="35" s:pid="S"/><g s:x="20" s:y="20" s:pid="Y"/></g><g s:type="mux" transform="translate(382,283)" s:width="20" s:height="40" id="cell_:19"><s:alias val="$pmux"/><s:alias val="$mux"/><s:alias val="$_MUX_"/><path d="M0,0 L20,10 L20,30 L0,40 Z" fill="#ffffff" class="cell_:19"/><text x="5" y="32" class="nodelabel cell_:19" s:attribute="">1</text><text x="5" y="13" class="nodelabel cell_:19" s:attribute="">0</text><g s:x="0" s:y="10" s:pid="A"/><g s:x="0" s:y="30" s:pid="B"/><g s:x="10" s:y="35" s:pid="S"/><g s:x="20" s:y="20" s:pid="Y"/></g><g s:type="mux" transform="translate(444,368)" s:width="20" s:height="40" id="cell_:20"><s:alias val="$pmux"/><s:alias val="$mux"/><s:alias val="$_MUX_"/><path d="M0,0 L20,10 L20,30 L0,40 Z" fill="#ffffff" class="cell_:20"/><text x="5" y="32" class="nodelabel cell_:20" s:attribute="">1</text><text x="5" y="13" class="nodelabel cell_:20" s:attribute="">0</text><g s:x="0" s:y="10" s:pid="A"/><g s:x="0" s:y="30" s:pid="B"/><g s:x="10" s:y="35" s:pid="S"/><g s:x="20" s:y="20" s:pid="Y"/></g><g s:type="not" transform="translate(379,87)" s:width="30" s:height="20" id="cell_:25"><s:alias val="$_NOT_"/><s:alias val="$not"/><s:alias val="$logic_not"/><path d="M0,0 L0,20 L20,10 Z" fill="#eebaff" class="cell_:25"/><circle cx="24" cy="10" r="3" fill="#eebaff" class="cell_:25"/><g s:x="-1" s:y="10" s:pid="A"/><g s:x="27" s:y="10" s:pid="Y"/></g><g s:type="generic" transform="translate(102,86.5)" s:width="30" s:height="40" id="cell_:26"><text x="15" y="-4" class="nodelabel cell_:26" s:attribute="ref">$adff</text><rect width="30" height="60" s:generic="body" fill="#ffae46" rx="0" class="cell_:26"/><g transform="translate(0,10)" s:x="0" s:y="10" s:pid="in0" id="port_:26~ARST"><text x="-3" y="-4" class="inputPortLabel cell_:26">ARST</text></g><g transform="translate(0,30)" s:x="0" s:y="10" s:pid="in0" id="port_:26~CLK"><text x="-3" y="-4" class="inputPortLabel cell_:26">CLK</text></g><g transform="translate(0,50)" s:x="0" s:y="10" s:pid="in0" id="port_:26~D"><text x="-3" y="-4" class="inputPortLabel cell_:26">D</text></g><g transform="translate(30,10)" s:x="30" s:y="10" s:pid="out0" id="port_:26~Q"><text x="5" y="-4" style="fill:#000; stroke:none" class="cell_:26">Q</text></g></g><g s:type="not" transform="translate(313,464)" s:width="30" s:height="20" id="cell_:6"><s:alias val="$_NOT_"/><s:alias val="$not"/><s:alias val="$logic_not"/><path d="M0,0 L0,20 L20,10 Z" fill="#eebaff" class="cell_:6"/><circle cx="24" cy="10" r="3" fill="#eebaff" class="cell_:6"/><g s:x="-1" s:y="10" s:pid="A"/><g s:x="27" s:y="10" s:pid="Y"/></g><g s:type="not" transform="translate(313,409)" s:width="30" s:height="20" id="cell_:7"><s:alias val="$_NOT_"/><s:alias val="$not"/><s:alias val="$logic_not"/><path d="M0,0 L0,20 L20,10 Z" fill="#eebaff" class="cell_:7"/><circle cx="24" cy="10" r="3" fill="#eebaff" class="cell_:7"/><g s:x="-1" s:y="10" s:pid="A"/><g s:x="27" s:y="10" s:pid="Y"/></g><g s:type="and" transform="translate(378.6666666666667,454)" s:width="30" s:height="25" id="cell_:8"><s:alias val="$and"/><s:alias val="$logic_and"/><s:alias val="$_AND_"/><path d="M0,0 L0,25 L15,25 A15 12.5 0 0 0 15,0 Z" fill="#eebaff" class="cell_:8"/><g s:x="0" s:y="5" s:pid="A"/><g s:x="0" s:y="20" s:pid="B"/><g s:x="30" s:y="12.5" s:pid="Y"/></g><g s:type="not" transform="translate(247,368)" s:width="30" s:height="20" id="cell_:9"><s:alias val="$_NOT_"/><s:alias val="$not"/><s:alias val="$logic_not"/><path d="M0,0 L0,20 L20,10 Z" fill="#eebaff" class="cell_:9"/><circle cx="24" cy="10" r="3" fill="#eebaff" class="cell_:9"/><g s:x="-1" s:y="10" s:pid="A"/><g s:x="27" s:y="10" s:pid="Y"/></g><g s:type="inputExt" transform="translate(12,107)" s:width="30" s:height="20" id="cell_clk"><text x="15" y="-4" class="nodelabel cell_clk" s:attribute="ref">clk</text><s:alias val="$_inputExt_"/><path d="M0,0 L0,20 L15,20 L30,10 L15,0 Z" fill="#8bcaff" class="cell_clk"/><g s:x="30" s:y="10" s:pid="Y"/></g><g s:type="inputExt" transform="translate(12,42)" s:width="30" s:height="20" id="cell_rst"><text x="15" y="-4" class="nodelabel cell_rst" s:attribute="ref">rst</text><s:alias val="$_inputExt_"/><path d="M0,0 L0,20 L15,20 L30,10 L15,0 Z" fill="#8bcaff" class="cell_rst"/><g s:x="30" s:y="10" s:pid="Y"/></g><g s:type="inputExt" transform="translate(102,368)" s:width="30" s:height="20" id="cell_j"><text x="15" y="-4" class="nodelabel cell_j" s:attribute="ref">j</text><s:alias val="$_inputExt_"/><path d="M0,0 L0,20 L15,20 L30,10 L15,0 Z" fill="#8bcaff" class="cell_j"/><g s:x="30" s:y="10" s:pid="Y"/></g><g s:type="inputExt" transform="translate(102,303)" s:width="30" s:height="20" id="cell_k"><text x="15" y="-4" class="nodelabel cell_k" s:attribute="ref">k</text><s:alias val="$_inputExt_"/><path d="M0,0 L0,20 L15,20 L30,10 L15,0 Z" fill="#8bcaff" class="cell_k"/><g s:x="30" s:y="10" s:pid="Y"/></g><g s:type="outputExt" transform="translate(444,22)" s:width="30" s:height="20" id="cell_q"><text x="15" y="-4" class="nodelabel cell_q" s:attribute="ref">q</text><s:alias val="$_outputExt_"/><path d="M30,0 L30,20 L15,20 L0,10 L15,0 Z" fill="#169300" class="cell_q"/><g s:x="0" s:y="10" s:pid="A"/></g><g s:type="outputExt" transform="translate(444,87)" s:width="30" s:height="20" id="cell_q_bar"><text x="15" y="-4" class="nodelabel cell_q_bar" s:attribute="ref">q_bar</text><s:alias val="$_outputExt_"/><path d="M30,0 L30,20 L15,20 L0,10 L15,0 Z" fill="#169300" class="cell_q_bar"/><g s:x="0" s:y="10" s:pid="A"/></g><g s:type="constant" transform="translate(246,215.5)" s:width="30" s:height="20" id="cell_1"><text x="15" y="-4" class="nodelabel cell_1" s:attribute="ref">1</text><s:alias val="$_constant_"/><rect width="30" height="20" fill="#745bff" class="cell_1"/><g s:x="31" s:y="10" s:pid="Y"/></g><g s:type="constant" transform="translate(312,303)" s:width="30" s:height="20" id="cell_0"><text x="15" y="-4" class="nodelabel cell_0" s:attribute="ref">0</text><s:alias val="$_constant_"/><rect width="30" height="20" fill="#745bff" class="cell_0"/><g s:x="31" s:y="10" s:pid="Y"/></g><line x1="132" x2="287" y1="313" y2="313" class="net_5 width_1" style="stroke-width: 1"/><line x1="287" x2="287" y1="313" y2="363" class="net_5 width_1" style="stroke-width: 1"/><line x1="287" x2="312.6666666666667" y1="363" y2="363" class="net_5 width_1" style="stroke-width: 1"/><line x1="132" x2="170" y1="313" y2="313" class="net_5 width_1" style="stroke-width: 1"/><line x1="170" x2="170" y1="313" y2="270.5" class="net_5 width_1" style="stroke-width: 1"/><circle cx="170" cy="313" r="2" style="fill:#000" class="net_5 width_1"/><circle cx="170" cy="270.5" r="2" style="fill:#000" class="net_5 width_1"/><line x1="170" x2="180" y1="270.5" y2="270.5" class="net_5 width_1" style="stroke-width: 1"/><line x1="132" x2="170" y1="313" y2="313" class="net_5 width_1" style="stroke-width: 1"/><line x1="170" x2="170" y1="313" y2="188" class="net_5 width_1" style="stroke-width: 1"/><line x1="170" x2="180.66666666666666" y1="188" y2="188" class="net_5 width_1" style="stroke-width: 1"/><line x1="132" x2="170" y1="313" y2="313" class="net_5 width_1" style="stroke-width: 1"/><line x1="170" x2="170" y1="313" y2="419" class="net_5 width_1" style="stroke-width: 1"/><line x1="170" x2="312" y1="419" y2="419" class="net_5 width_1" style="stroke-width: 1"/><line x1="274" x2="312.6666666666667" y1="378" y2="378" class="net_8 width_1" style="stroke-width: 1"/><line x1="208" x2="221" y1="270.5" y2="270.5" class="net_10 width_1" style="stroke-width: 1"/><line x1="221" x2="221" y1="270.5" y2="275.5" class="net_10 width_1" style="stroke-width: 1"/><line x1="221" x2="246.66666666666666" y1="275.5" y2="275.5" class="net_10 width_1" style="stroke-width: 1"/><line x1="132" x2="160" y1="378" y2="378" class="net_4 width_1" style="stroke-width: 1"/><line x1="160" x2="160" y1="378" y2="290.5" class="net_4 width_1" style="stroke-width: 1"/><circle cx="160" cy="378" r="2" style="fill:#000" class="net_4 width_1"/><circle cx="160" cy="290.5" r="2" style="fill:#000" class="net_4 width_1"/><line x1="160" x2="246.66666666666666" y1="290.5" y2="290.5" class="net_4 width_1" style="stroke-width: 1"/><line x1="132" x2="160" y1="378" y2="378" class="net_4 width_1" style="stroke-width: 1"/><line x1="160" x2="160" y1="378" y2="203" class="net_4 width_1" style="stroke-width: 1"/><line x1="160" x2="180.66666666666666" y1="203" y2="203" class="net_4 width_1" style="stroke-width: 1"/><line x1="132" x2="160" y1="378" y2="378" class="net_4 width_1" style="stroke-width: 1"/><line x1="160" x2="160" y1="378" y2="474" class="net_4 width_1" style="stroke-width: 1"/><line x1="160" x2="312" y1="474" y2="474" class="net_4 width_1" style="stroke-width: 1"/><line x1="132" x2="246" y1="378" y2="378" class="net_4 width_1" style="stroke-width: 1"/><line x1="133" x2="150" y1="97" y2="97" class="net_6 width_1" style="stroke-width: 1"/><line x1="150" x2="150" y1="97" y2="138" class="net_6 width_1" style="stroke-width: 1"/><circle cx="150" cy="97" r="2" style="fill:#000" class="net_6 width_1"/><circle cx="150" cy="138" r="2" style="fill:#000" class="net_6 width_1"/><line x1="150" x2="180" y1="138" y2="138" class="net_6 width_1" style="stroke-width: 1"/><line x1="133" x2="221" y1="97" y2="97" class="net_6 width_1" style="stroke-width: 1"/><line x1="221" x2="221" y1="97" y2="118" class="net_6 width_1" style="stroke-width: 1"/><circle cx="221" cy="97" r="2" style="fill:#000" class="net_6 width_1"/><line x1="221" x2="250" y1="118" y2="118" class="net_6 width_1" style="stroke-width: 1"/><line x1="133" x2="150" y1="97" y2="97" class="net_6 width_1" style="stroke-width: 1"/><line x1="150" x2="150" y1="97" y2="398" class="net_6 width_1" style="stroke-width: 1"/><line x1="150" x2="444" y1="398" y2="398" class="net_6 width_1" style="stroke-width: 1"/><line x1="133" x2="378" y1="97" y2="97" class="net_6 width_1" style="stroke-width: 1"/><line x1="133" x2="353" y1="97" y2="97" class="net_6 width_1" style="stroke-width: 1"/><line x1="353" x2="353" y1="97" y2="32" class="net_6 width_1" style="stroke-width: 1"/><circle cx="353" cy="97" r="2" style="fill:#000" class="net_6 width_1"/><line x1="353" x2="444" y1="32" y2="32" class="net_6 width_1" style="stroke-width: 1"/><line x1="208" x2="250" y1="138" y2="138" class="net_13 width_1" style="stroke-width: 1"/><line x1="210.66666666666666" x2="260" y1="195.5" y2="195.5" class="net_12 width_1" style="stroke-width: 1"/><line x1="260" x2="260" y1="195.5" y2="143" class="net_12 width_1" style="stroke-width: 1"/><line x1="270" x2="287" y1="128" y2="128" class="net_14 width_1" style="stroke-width: 1"/><line x1="287" x2="287" y1="128" y2="205.5" class="net_14 width_1" style="stroke-width: 1"/><line x1="287" x2="316" y1="205.5" y2="205.5" class="net_14 width_1" style="stroke-width: 1"/><line x1="277" x2="316" y1="225.5" y2="225.5" class="net_21 width_1" style="stroke-width: 1"/><line x1="276.66666666666663" x2="326" y1="283" y2="283" class="net_11 width_1" style="stroke-width: 1"/><line x1="326" x2="326" y1="283" y2="230.5" class="net_11 width_1" style="stroke-width: 1"/><line x1="336" x2="353" y1="215.5" y2="215.5" class="net_15 width_1" style="stroke-width: 1"/><line x1="353" x2="353" y1="215.5" y2="293" class="net_15 width_1" style="stroke-width: 1"/><line x1="353" x2="382" y1="293" y2="293" class="net_15 width_1" style="stroke-width: 1"/><line x1="343" x2="382" y1="313" y2="313" class="net_22 width_1" style="stroke-width: 1"/><line x1="342.6666666666667" x2="392" y1="370.5" y2="370.5" class="net_9 width_1" style="stroke-width: 1"/><line x1="392" x2="392" y1="370.5" y2="318" class="net_9 width_1" style="stroke-width: 1"/><line x1="402" x2="419" y1="303" y2="303" class="net_16 width_1" style="stroke-width: 1"/><line x1="419" x2="419" y1="303" y2="378" class="net_16 width_1" style="stroke-width: 1"/><line x1="419" x2="444" y1="378" y2="378" class="net_16 width_1" style="stroke-width: 1"/><line x1="408.6666666666667" x2="454" y1="466.5" y2="466.5" class="net_17 width_1" style="stroke-width: 1"/><line x1="454" x2="454" y1="466.5" y2="403" class="net_17 width_1" style="stroke-width: 1"/><line x1="42" x2="52" y1="52" y2="52" class="net_3 width_1" style="stroke-width: 1"/><line x1="52" x2="52" y1="52" y2="97" class="net_3 width_1" style="stroke-width: 1"/><line x1="52" x2="102" y1="97" y2="97" class="net_3 width_1" style="stroke-width: 1"/><line x1="42" x2="101" y1="117" y2="117" class="net_2 width_1" style="stroke-width: 1"/><line x1="464" x2="484" y1="388" y2="388" class="net_18 width_1" style="stroke-width: 1"/><line x1="484" x2="484" y1="388" y2="494" class="net_18 width_1" style="stroke-width: 1"/><line x1="484" x2="52" y1="494" y2="494" class="net_18 width_1" style="stroke-width: 1"/><line x1="52" x2="52" y1="494" y2="137" class="net_18 width_1" style="stroke-width: 1"/><line x1="52" x2="101" y1="137" y2="137" class="net_18 width_1" style="stroke-width: 1"/><line x1="340" x2="353" y1="419" y2="419" class="net_20 width_1" style="stroke-width: 1"/><line x1="353" x2="353" y1="419" y2="459" class="net_20 width_1" style="stroke-width: 1"/><line x1="353" x2="378.6666666666667" y1="459" y2="459" class="net_20 width_1" style="stroke-width: 1"/><line x1="340" x2="378.6666666666667" y1="474" y2="474" class="net_19 width_1" style="stroke-width: 1"/><line x1="406" x2="444" y1="97" y2="97" class="net_7 width_1" style="stroke-width: 1"/></svg>