<?xml version="1.0" encoding="UTF-8" standalone="no"?>
<!DOCTYPE svg PUBLIC "-//W3C//DTD SVG 1.1//EN"
 "http://www.w3.org/Graphics/SVG/1.1/DTD/svg11.dtd">
<!-- Generated by graphviz version 2.40.1 (20161225.0304)
 -->
<!-- Title: state transitions Pages: 1 -->
<svg width="348pt" height="1336pt"
 viewBox="0.00 0.00 348.00 1336.00" xmlns="http://www.w3.org/2000/svg" xmlns:xlink="http://www.w3.org/1999/xlink">
<g id="graph0" class="graph" transform="scale(1 1) rotate(0) translate(4 1332)">
<title>state transitions</title>
<polygon fill="#ffffff" stroke="transparent" points="-4,4 -4,-1332 344,-1332 344,4 -4,4"/>
<g id="clust1" class="cluster state regular">
<title>cluster_next_state</title>
<path fill="none" stroke="#000000" stroke-width="2" d="M20,-8C20,-8 320,-8 320,-8 326,-8 332,-14 332,-20 332,-20 332,-1308 332,-1308 332,-1314 326,-1320 320,-1320 320,-1320 20,-1320 20,-1320 14,-1320 8,-1314 8,-1308 8,-1308 8,-20 8,-20 8,-14 14,-8 20,-8"/>
<text text-anchor="start" x="142.8208" y="-1301.2" font-family="Helvetica,sans-Serif" font-size="12.00" fill="#000000">next_state</text>
</g>
<!-- next_state -->
<!-- s0 -->
<g id="node2" class="node state regular">
<title>s0</title>
<polygon fill="#ffffff" fill-opacity="0.003922" stroke="transparent" stroke-width="2" points="140,-1282 84,-1282 84,-1246 140,-1246 140,-1282"/>
<text text-anchor="start" x="105.6646" y="-1260.2" font-family="Helvetica,sans-Serif" font-size="12.00" fill="#000000">s0</text>
<path fill="none" stroke="#000000" stroke-width="2" d="M96.3333,-1247C96.3333,-1247 127.6667,-1247 127.6667,-1247 133.3333,-1247 139,-1252.6667 139,-1258.3333 139,-1258.3333 139,-1269.6667 139,-1269.6667 139,-1275.3333 133.3333,-1281 127.6667,-1281 127.6667,-1281 96.3333,-1281 96.3333,-1281 90.6667,-1281 85,-1275.3333 85,-1269.6667 85,-1269.6667 85,-1258.3333 85,-1258.3333 85,-1252.6667 90.6667,-1247 96.3333,-1247"/>
</g>
<!-- s1 -->
<g id="node3" class="node state regular">
<title>s1</title>
<polygon fill="#ffffff" fill-opacity="0.003922" stroke="transparent" stroke-width="2" points="199,-1200 143,-1200 143,-1164 199,-1164 199,-1200"/>
<text text-anchor="start" x="164.6646" y="-1178.2" font-family="Helvetica,sans-Serif" font-size="12.00" fill="#000000">s1</text>
<path fill="none" stroke="#000000" stroke-width="2" d="M155.3333,-1165C155.3333,-1165 186.6667,-1165 186.6667,-1165 192.3333,-1165 198,-1170.6667 198,-1176.3333 198,-1176.3333 198,-1187.6667 198,-1187.6667 198,-1193.3333 192.3333,-1199 186.6667,-1199 186.6667,-1199 155.3333,-1199 155.3333,-1199 149.6667,-1199 144,-1193.3333 144,-1187.6667 144,-1187.6667 144,-1176.3333 144,-1176.3333 144,-1170.6667 149.6667,-1165 155.3333,-1165"/>
</g>
<!-- s0&#45;&gt;s1 -->
<g id="edge2" class="edge transition">
<title>s0&#45;&gt;s1</title>
<path fill="none" stroke="#000000" d="M125.094,-1245.8015C132.9617,-1234.8668 143.1122,-1220.7593 151.867,-1208.5916"/>
<polygon fill="#000000" stroke="#000000" points="154.9431,-1210.309 157.9426,-1200.1476 149.2611,-1206.2207 154.9431,-1210.309"/>
<text text-anchor="start" x="145" y="-1220" font-family="Helvetica,sans-Serif" font-size="10.00" fill="#000000">not (x = &#39;0&#39;) &#160;&#160;</text>
</g>
<!-- s2 -->
<g id="node4" class="node state regular">
<title>s2</title>
<polygon fill="#ffffff" fill-opacity="0.003922" stroke="transparent" stroke-width="2" points="216,-1118 160,-1118 160,-1082 216,-1082 216,-1118"/>
<text text-anchor="start" x="181.6646" y="-1096.2" font-family="Helvetica,sans-Serif" font-size="12.00" fill="#000000">s2</text>
<path fill="none" stroke="#000000" stroke-width="2" d="M172.3333,-1083C172.3333,-1083 203.6667,-1083 203.6667,-1083 209.3333,-1083 215,-1088.6667 215,-1094.3333 215,-1094.3333 215,-1105.6667 215,-1105.6667 215,-1111.3333 209.3333,-1117 203.6667,-1117 203.6667,-1117 172.3333,-1117 172.3333,-1117 166.6667,-1117 161,-1111.3333 161,-1105.6667 161,-1105.6667 161,-1094.3333 161,-1094.3333 161,-1088.6667 166.6667,-1083 172.3333,-1083"/>
</g>
<!-- s0&#45;&gt;s2 -->
<g id="edge1" class="edge transition">
<title>s0&#45;&gt;s2</title>
<path fill="none" stroke="#000000" d="M89.7749,-1245.7208C84.3145,-1239.2701 80,-1231.4877 80,-1223 80,-1223 80,-1223 80,-1141 80,-1109.7737 115.0037,-1127.3967 150.4373,-1118.1394"/>
<polygon fill="#000000" stroke="#000000" points="151.5534,-1121.4568 159.9222,-1114.9596 149.3283,-1114.8198 151.5534,-1121.4568"/>
<text text-anchor="start" x="80" y="-1179" font-family="Helvetica,sans-Serif" font-size="10.00" fill="#000000">x = &#39;0&#39; &#160;&#160;</text>
</g>
<!-- s1&#45;&gt;s2 -->
<g id="edge3" class="edge transition">
<title>s1&#45;&gt;s2</title>
<path fill="none" stroke="#000000" d="M174.7729,-1163.8015C176.9518,-1153.2915 179.7384,-1139.8503 182.1915,-1128.0177"/>
<polygon fill="#000000" stroke="#000000" points="185.6347,-1128.6499 184.2377,-1118.1476 178.7805,-1127.2288 185.6347,-1128.6499"/>
<text text-anchor="start" x="180" y="-1138" font-family="Helvetica,sans-Serif" font-size="10.00" fill="#000000">x = &#39;0&#39; &#160;&#160;</text>
</g>
<!-- s3 -->
<g id="node5" class="node state regular">
<title>s3</title>
<polygon fill="#ffffff" fill-opacity="0.003922" stroke="transparent" stroke-width="2" points="134,-1036 78,-1036 78,-1000 134,-1000 134,-1036"/>
<text text-anchor="start" x="99.6646" y="-1014.2" font-family="Helvetica,sans-Serif" font-size="12.00" fill="#000000">s3</text>
<path fill="none" stroke="#000000" stroke-width="2" d="M90.3333,-1001C90.3333,-1001 121.6667,-1001 121.6667,-1001 127.3333,-1001 133,-1006.6667 133,-1012.3333 133,-1012.3333 133,-1023.6667 133,-1023.6667 133,-1029.3333 127.3333,-1035 121.6667,-1035 121.6667,-1035 90.3333,-1035 90.3333,-1035 84.6667,-1035 79,-1029.3333 79,-1023.6667 79,-1023.6667 79,-1012.3333 79,-1012.3333 79,-1006.6667 84.6667,-1001 90.3333,-1001"/>
</g>
<!-- s1&#45;&gt;s3 -->
<g id="edge4" class="edge transition">
<title>s1&#45;&gt;s3</title>
<path fill="none" stroke="#000000" d="M142.8393,-1168.082C124.3491,-1157.2419 101.6715,-1140.2893 90.955,-1118 80.0371,-1095.292 86.0889,-1066.6164 93.515,-1045.8009"/>
<polygon fill="#000000" stroke="#000000" points="96.8566,-1046.8636 97.2026,-1036.2744 90.3286,-1044.3367 96.8566,-1046.8636"/>
<text text-anchor="start" x="90" y="-1097" font-family="Helvetica,sans-Serif" font-size="10.00" fill="#000000">not (x = &#39;0&#39;) &#160;&#160;</text>
</g>
<!-- s2&#45;&gt;s3 -->
<g id="edge6" class="edge transition">
<title>s2&#45;&gt;s3</title>
<path fill="none" stroke="#000000" d="M161.6635,-1081.8965C154.9392,-1076.7703 147.9283,-1070.955 141.955,-1065 135.8161,-1058.88 129.8181,-1051.6886 124.535,-1044.7969"/>
<polygon fill="#000000" stroke="#000000" points="127.0311,-1042.2862 118.2685,-1036.3308 121.4047,-1046.4508 127.0311,-1042.2862"/>
<text text-anchor="start" x="141" y="-1056" font-family="Helvetica,sans-Serif" font-size="10.00" fill="#000000">not (x = &#39;0&#39;) &#160;&#160;</text>
</g>
<!-- s4 -->
<g id="node6" class="node state regular">
<title>s4</title>
<polygon fill="#ffffff" fill-opacity="0.003922" stroke="transparent" stroke-width="2" points="225,-954 169,-954 169,-918 225,-918 225,-954"/>
<text text-anchor="start" x="190.6646" y="-932.2" font-family="Helvetica,sans-Serif" font-size="12.00" fill="#000000">s4</text>
<path fill="none" stroke="#000000" stroke-width="2" d="M181.3333,-919C181.3333,-919 212.6667,-919 212.6667,-919 218.3333,-919 224,-924.6667 224,-930.3333 224,-930.3333 224,-941.6667 224,-941.6667 224,-947.3333 218.3333,-953 212.6667,-953 212.6667,-953 181.3333,-953 181.3333,-953 175.6667,-953 170,-947.3333 170,-941.6667 170,-941.6667 170,-930.3333 170,-930.3333 170,-924.6667 175.6667,-919 181.3333,-919"/>
</g>
<!-- s2&#45;&gt;s4 -->
<g id="edge5" class="edge transition">
<title>s2&#45;&gt;s4</title>
<path fill="none" stroke="#000000" d="M199.7045,-1081.9481C203.1425,-1075.0488 206,-1066.9293 206,-1059 206,-1059 206,-1059 206,-977 206,-972.8552 205.5558,-968.5284 204.8647,-964.305"/>
<polygon fill="#000000" stroke="#000000" points="208.2212,-963.2557 202.7508,-954.1823 201.369,-964.6867 208.2212,-963.2557"/>
<text text-anchor="start" x="206" y="-1015" font-family="Helvetica,sans-Serif" font-size="10.00" fill="#000000">x = &#39;0&#39; &#160;&#160;</text>
</g>
<!-- s3&#45;&gt;s4 -->
<g id="edge7" class="edge transition">
<title>s3&#45;&gt;s4</title>
<path fill="none" stroke="#000000" d="M126.1958,-999.8015C138.802,-988.4422 155.2079,-973.6588 169.0529,-961.1831"/>
<polygon fill="#000000" stroke="#000000" points="171.7747,-963.4419 176.8606,-954.1476 167.0887,-958.2417 171.7747,-963.4419"/>
<text text-anchor="start" x="157" y="-974" font-family="Helvetica,sans-Serif" font-size="10.00" fill="#000000">x = &#39;0&#39; &#160;&#160;</text>
</g>
<!-- s5 -->
<g id="node7" class="node state regular">
<title>s5</title>
<polygon fill="#ffffff" fill-opacity="0.003922" stroke="transparent" stroke-width="2" points="133,-872 77,-872 77,-836 133,-836 133,-872"/>
<text text-anchor="start" x="98.6646" y="-850.2" font-family="Helvetica,sans-Serif" font-size="12.00" fill="#000000">s5</text>
<path fill="none" stroke="#000000" stroke-width="2" d="M89.3333,-837C89.3333,-837 120.6667,-837 120.6667,-837 126.3333,-837 132,-842.6667 132,-848.3333 132,-848.3333 132,-859.6667 132,-859.6667 132,-865.3333 126.3333,-871 120.6667,-871 120.6667,-871 89.3333,-871 89.3333,-871 83.6667,-871 78,-865.3333 78,-859.6667 78,-859.6667 78,-848.3333 78,-848.3333 78,-842.6667 83.6667,-837 89.3333,-837"/>
</g>
<!-- s3&#45;&gt;s5 -->
<g id="edge8" class="edge transition">
<title>s3&#45;&gt;s5</title>
<path fill="none" stroke="#000000" d="M88.5134,-999.8642C83.8102,-993.2044 80,-985.2601 80,-977 80,-977 80,-977 80,-895 80,-890.2766 81.2245,-885.6357 83.1315,-881.2722"/>
<polygon fill="#000000" stroke="#000000" points="86.3575,-882.6744 88.1859,-872.2385 80.2487,-879.2564 86.3575,-882.6744"/>
<text text-anchor="start" x="80" y="-933" font-family="Helvetica,sans-Serif" font-size="10.00" fill="#000000">not (x = &#39;0&#39;) &#160;&#160;</text>
</g>
<!-- s4&#45;&gt;s5 -->
<g id="edge10" class="edge transition">
<title>s4&#45;&gt;s5</title>
<path fill="none" stroke="#000000" d="M168.8191,-920.6216C159.7731,-915.0391 150.0169,-908.2938 141.955,-901 135.2055,-894.8935 128.744,-887.456 123.1651,-880.3158"/>
<polygon fill="#000000" stroke="#000000" points="125.8557,-878.0698 117.057,-872.1678 120.2547,-882.2686 125.8557,-878.0698"/>
<text text-anchor="start" x="141" y="-892" font-family="Helvetica,sans-Serif" font-size="10.00" fill="#000000">not (x = &#39;0&#39;) &#160;&#160;</text>
</g>
<!-- s6 -->
<g id="node8" class="node state regular">
<title>s6</title>
<polygon fill="#ffffff" fill-opacity="0.003922" stroke="transparent" stroke-width="2" points="225,-790 169,-790 169,-754 225,-754 225,-790"/>
<text text-anchor="start" x="190.6646" y="-768.2" font-family="Helvetica,sans-Serif" font-size="12.00" fill="#000000">s6</text>
<path fill="none" stroke="#000000" stroke-width="2" d="M181.3333,-755C181.3333,-755 212.6667,-755 212.6667,-755 218.3333,-755 224,-760.6667 224,-766.3333 224,-766.3333 224,-777.6667 224,-777.6667 224,-783.3333 218.3333,-789 212.6667,-789 212.6667,-789 181.3333,-789 181.3333,-789 175.6667,-789 170,-783.3333 170,-777.6667 170,-777.6667 170,-766.3333 170,-766.3333 170,-760.6667 175.6667,-755 181.3333,-755"/>
</g>
<!-- s4&#45;&gt;s6 -->
<g id="edge9" class="edge transition">
<title>s4&#45;&gt;s6</title>
<path fill="none" stroke="#000000" d="M202.7508,-917.8177C204.5146,-910.7667 206,-902.579 206,-895 206,-895 206,-895 206,-813 206,-808.8552 205.5558,-804.5284 204.8647,-800.305"/>
<polygon fill="#000000" stroke="#000000" points="208.2212,-799.2557 202.7508,-790.1823 201.369,-800.6867 208.2212,-799.2557"/>
<text text-anchor="start" x="206" y="-851" font-family="Helvetica,sans-Serif" font-size="10.00" fill="#000000">x = &#39;0&#39; &#160;&#160;</text>
</g>
<!-- s5&#45;&gt;s6 -->
<g id="edge11" class="edge transition">
<title>s5&#45;&gt;s6</title>
<path fill="none" stroke="#000000" d="M125.4178,-835.8015C138.2816,-824.336 155.059,-809.3822 169.1375,-796.8339"/>
<polygon fill="#000000" stroke="#000000" points="171.5029,-799.4141 176.6393,-790.1476 166.8453,-794.1885 171.5029,-799.4141"/>
<text text-anchor="start" x="157" y="-810" font-family="Helvetica,sans-Serif" font-size="10.00" fill="#000000">x = &#39;0&#39; &#160;&#160;</text>
</g>
<!-- s7 -->
<g id="node9" class="node state regular">
<title>s7</title>
<polygon fill="#ffffff" fill-opacity="0.003922" stroke="transparent" stroke-width="2" points="152,-708 96,-708 96,-672 152,-672 152,-708"/>
<text text-anchor="start" x="117.6646" y="-686.2" font-family="Helvetica,sans-Serif" font-size="12.00" fill="#000000">s7</text>
<path fill="none" stroke="#000000" stroke-width="2" d="M108.3333,-673C108.3333,-673 139.6667,-673 139.6667,-673 145.3333,-673 151,-678.6667 151,-684.3333 151,-684.3333 151,-695.6667 151,-695.6667 151,-701.3333 145.3333,-707 139.6667,-707 139.6667,-707 108.3333,-707 108.3333,-707 102.6667,-707 97,-701.3333 97,-695.6667 97,-695.6667 97,-684.3333 97,-684.3333 97,-678.6667 102.6667,-673 108.3333,-673"/>
</g>
<!-- s5&#45;&gt;s7 -->
<g id="edge12" class="edge transition">
<title>s5&#45;&gt;s7</title>
<path fill="none" stroke="#000000" d="M88.1859,-835.7615C83.6636,-829.0935 80,-821.1702 80,-813 80,-813 80,-813 80,-731 80,-723.5345 83.4323,-717.0409 88.3796,-711.5587"/>
<polygon fill="#000000" stroke="#000000" points="90.855,-714.0382 95.885,-704.7135 86.1379,-708.8662 90.855,-714.0382"/>
<text text-anchor="start" x="80" y="-769" font-family="Helvetica,sans-Serif" font-size="10.00" fill="#000000">not (x = &#39;0&#39;) &#160;&#160;</text>
</g>
<!-- s6&#45;&gt;s7 -->
<g id="edge14" class="edge transition">
<title>s6&#45;&gt;s7</title>
<path fill="none" stroke="#000000" d="M168.8537,-758.7891C159.2824,-753.1769 149.1886,-745.8601 141.955,-737 137.427,-731.4538 133.9578,-724.6407 131.3337,-717.9407"/>
<polygon fill="#000000" stroke="#000000" points="134.609,-716.7012 128.0687,-708.366 127.9836,-718.9605 134.609,-716.7012"/>
<text text-anchor="start" x="141" y="-728" font-family="Helvetica,sans-Serif" font-size="10.00" fill="#000000">not (x = &#39;0&#39;) &#160;&#160;</text>
</g>
<!-- s8 -->
<g id="node10" class="node state regular">
<title>s8</title>
<polygon fill="#ffffff" fill-opacity="0.003922" stroke="transparent" stroke-width="2" points="96,-626 40,-626 40,-590 96,-590 96,-626"/>
<text text-anchor="start" x="61.6646" y="-604.2" font-family="Helvetica,sans-Serif" font-size="12.00" fill="#000000">s8</text>
<path fill="none" stroke="#000000" stroke-width="2" d="M52.3333,-591C52.3333,-591 83.6667,-591 83.6667,-591 89.3333,-591 95,-596.6667 95,-602.3333 95,-602.3333 95,-613.6667 95,-613.6667 95,-619.3333 89.3333,-625 83.6667,-625 83.6667,-625 52.3333,-625 52.3333,-625 46.6667,-625 41,-619.3333 41,-613.6667 41,-613.6667 41,-602.3333 41,-602.3333 41,-596.6667 46.6667,-591 52.3333,-591"/>
</g>
<!-- s6&#45;&gt;s8 -->
<g id="edge13" class="edge transition">
<title>s6&#45;&gt;s8</title>
<path fill="none" stroke="#000000" d="M202.7508,-753.8177C204.5146,-746.7667 206,-738.579 206,-731 206,-731 206,-731 206,-649 206,-643.7726 147.0483,-627.8638 106.2059,-617.4692"/>
<polygon fill="#000000" stroke="#000000" points="106.8122,-614.0125 96.2594,-614.9552 105.0968,-620.799 106.8122,-614.0125"/>
<text text-anchor="start" x="206" y="-687" font-family="Helvetica,sans-Serif" font-size="10.00" fill="#000000">x = &#39;0&#39; &#160;&#160;</text>
</g>
<!-- s7&#45;&gt;s8 -->
<g id="edge15" class="edge transition">
<title>s7&#45;&gt;s8</title>
<path fill="none" stroke="#000000" d="M111.0795,-671.9004C107.2529,-666.4861 103.0748,-660.5212 99.289,-655 94.8681,-648.5526 90.1651,-641.561 85.7849,-634.99"/>
<polygon fill="#000000" stroke="#000000" points="88.5159,-632.7757 80.0686,-626.3809 82.6843,-636.6478 88.5159,-632.7757"/>
<text text-anchor="start" x="99" y="-646" font-family="Helvetica,sans-Serif" font-size="10.00" fill="#000000">x = &#39;0&#39; &#160;&#160;</text>
</g>
<!-- s9 -->
<g id="node11" class="node state regular">
<title>s9</title>
<polygon fill="#ffffff" fill-opacity="0.003922" stroke="transparent" stroke-width="2" points="186,-544 130,-544 130,-508 186,-508 186,-544"/>
<text text-anchor="start" x="151.6646" y="-522.2" font-family="Helvetica,sans-Serif" font-size="12.00" fill="#000000">s9</text>
<path fill="none" stroke="#000000" stroke-width="2" d="M142.3333,-509C142.3333,-509 173.6667,-509 173.6667,-509 179.3333,-509 185,-514.6667 185,-520.3333 185,-520.3333 185,-531.6667 185,-531.6667 185,-537.3333 179.3333,-543 173.6667,-543 173.6667,-543 142.3333,-543 142.3333,-543 136.6667,-543 131,-537.3333 131,-531.6667 131,-531.6667 131,-520.3333 131,-520.3333 131,-514.6667 136.6667,-509 142.3333,-509"/>
</g>
<!-- s7&#45;&gt;s9 -->
<g id="edge16" class="edge transition">
<title>s7&#45;&gt;s9</title>
<path fill="none" stroke="#000000" d="M129.7672,-671.6433C138.2189,-644.8786 153.3579,-597.4991 156.955,-590 160.8518,-581.8761 165.4401,-581.6389 168,-573 169.7917,-566.9536 169.6533,-560.3799 168.5685,-554.1175"/>
<polygon fill="#000000" stroke="#000000" points="171.8614,-552.8613 166.0229,-544.0203 165.0738,-554.5725 171.8614,-552.8613"/>
<text text-anchor="start" x="156" y="-605" font-family="Helvetica,sans-Serif" font-size="10.00" fill="#000000">not (x = &#39;0&#39;) &#160;&#160;</text>
</g>
<!-- s8&#45;&gt;s9 -->
<g id="edge18" class="edge transition">
<title>s8&#45;&gt;s9</title>
<path fill="none" stroke="#000000" d="M82.2515,-589.6893C89.7371,-580.6004 99.3371,-569.7277 108.955,-561 113.0219,-557.3095 117.4835,-553.6606 122.0067,-550.1916"/>
<polygon fill="#000000" stroke="#000000" points="124.1862,-552.9329 130.1433,-544.1714 120.0227,-547.3057 124.1862,-552.9329"/>
<text text-anchor="start" x="108" y="-564" font-family="Helvetica,sans-Serif" font-size="10.00" fill="#000000">not (x = &#39;0&#39;) &#160;&#160;</text>
</g>
<!-- s10 -->
<g id="node12" class="node state regular">
<title>s10</title>
<polygon fill="#ffffff" fill-opacity="0.003922" stroke="transparent" stroke-width="2" points="116,-462 60,-462 60,-426 116,-426 116,-462"/>
<text text-anchor="start" x="78.3292" y="-440.2" font-family="Helvetica,sans-Serif" font-size="12.00" fill="#000000">s10</text>
<path fill="none" stroke="#000000" stroke-width="2" d="M72.3333,-427C72.3333,-427 103.6667,-427 103.6667,-427 109.3333,-427 115,-432.6667 115,-438.3333 115,-438.3333 115,-449.6667 115,-449.6667 115,-455.3333 109.3333,-461 103.6667,-461 103.6667,-461 72.3333,-461 72.3333,-461 66.6667,-461 61,-455.3333 61,-449.6667 61,-449.6667 61,-438.3333 61,-438.3333 61,-432.6667 66.6667,-427 72.3333,-427"/>
</g>
<!-- s8&#45;&gt;s10 -->
<g id="edge17" class="edge transition">
<title>s8&#45;&gt;s10</title>
<path fill="none" stroke="#000000" d="M70.2168,-589.8225C73.6857,-561.3769 80.425,-506.1152 84.5378,-472.3904"/>
<polygon fill="#000000" stroke="#000000" points="88.0369,-472.6091 85.7733,-462.2589 81.0884,-471.7616 88.0369,-472.6091"/>
<text text-anchor="start" x="80" y="-523" font-family="Helvetica,sans-Serif" font-size="10.00" fill="#000000">x = &#39;0&#39; &#160;&#160;</text>
</g>
<!-- s9&#45;&gt;s10 -->
<g id="edge19" class="edge transition">
<title>s9&#45;&gt;s10</title>
<path fill="none" stroke="#000000" d="M142.4647,-507.8015C132.9489,-496.6545 120.6185,-482.2103 110.097,-469.8851"/>
<polygon fill="#000000" stroke="#000000" points="112.6465,-467.4808 103.4918,-462.1476 107.3225,-472.0257 112.6465,-467.4808"/>
<text text-anchor="start" x="127" y="-482" font-family="Helvetica,sans-Serif" font-size="10.00" fill="#000000">x = &#39;0&#39; &#160;&#160;</text>
</g>
<!-- s11 -->
<g id="node13" class="node state regular">
<title>s11</title>
<polygon fill="#ffffff" fill-opacity="0.003922" stroke="transparent" stroke-width="2" points="196,-380 140,-380 140,-344 196,-344 196,-380"/>
<text text-anchor="start" x="158.3292" y="-358.2" font-family="Helvetica,sans-Serif" font-size="12.00" fill="#000000">s11</text>
<path fill="none" stroke="#000000" stroke-width="2" d="M152.3333,-345C152.3333,-345 183.6667,-345 183.6667,-345 189.3333,-345 195,-350.6667 195,-356.3333 195,-356.3333 195,-367.6667 195,-367.6667 195,-373.3333 189.3333,-379 183.6667,-379 183.6667,-379 152.3333,-379 152.3333,-379 146.6667,-379 141,-373.3333 141,-367.6667 141,-367.6667 141,-356.3333 141,-356.3333 141,-350.6667 146.6667,-345 152.3333,-345"/>
</g>
<!-- s9&#45;&gt;s11 -->
<g id="edge20" class="edge transition">
<title>s9&#45;&gt;s11</title>
<path fill="none" stroke="#000000" d="M178.5078,-507.8952C183.7813,-501.3497 188,-493.4673 188,-485 188,-485 188,-485 188,-403 188,-398.4214 186.98,-393.8198 185.4007,-389.4391"/>
<polygon fill="#000000" stroke="#000000" points="188.5645,-387.9412 181.2289,-380.2965 182.1961,-390.8471 188.5645,-387.9412"/>
<text text-anchor="start" x="188" y="-441" font-family="Helvetica,sans-Serif" font-size="10.00" fill="#000000">not (x = &#39;0&#39;) &#160;&#160;</text>
</g>
<!-- s10&#45;&gt;s11 -->
<g id="edge22" class="edge transition">
<title>s10&#45;&gt;s11</title>
<path fill="none" stroke="#000000" d="M100.3482,-425.7483C106.8782,-416.6744 115.3183,-405.7974 123.955,-397 127.3676,-393.5239 131.1223,-390.0737 134.9563,-386.7714"/>
<polygon fill="#000000" stroke="#000000" points="137.3783,-389.3102 142.8531,-380.2395 132.9167,-383.9163 137.3783,-389.3102"/>
<text text-anchor="start" x="123" y="-400" font-family="Helvetica,sans-Serif" font-size="10.00" fill="#000000">not (x = &#39;0&#39;) &#160;&#160;</text>
</g>
<!-- s12 -->
<g id="node14" class="node state regular">
<title>s12</title>
<polygon fill="#ffffff" fill-opacity="0.003922" stroke="transparent" stroke-width="2" points="115,-298 59,-298 59,-262 115,-262 115,-298"/>
<text text-anchor="start" x="77.3292" y="-276.2" font-family="Helvetica,sans-Serif" font-size="12.00" fill="#000000">s12</text>
<path fill="none" stroke="#000000" stroke-width="2" d="M71.3333,-263C71.3333,-263 102.6667,-263 102.6667,-263 108.3333,-263 114,-268.6667 114,-274.3333 114,-274.3333 114,-285.6667 114,-285.6667 114,-291.3333 108.3333,-297 102.6667,-297 102.6667,-297 71.3333,-297 71.3333,-297 65.6667,-297 60,-291.3333 60,-285.6667 60,-285.6667 60,-274.3333 60,-274.3333 60,-268.6667 65.6667,-263 71.3333,-263"/>
</g>
<!-- s10&#45;&gt;s12 -->
<g id="edge21" class="edge transition">
<title>s10&#45;&gt;s12</title>
<path fill="none" stroke="#000000" d="M70.5134,-425.8642C65.8102,-419.2044 62,-411.2601 62,-403 62,-403 62,-403 62,-321 62,-316.2766 63.2245,-311.6357 65.1315,-307.2722"/>
<polygon fill="#000000" stroke="#000000" points="68.3575,-308.6744 70.1859,-298.2385 62.2487,-305.2564 68.3575,-308.6744"/>
<text text-anchor="start" x="62" y="-359" font-family="Helvetica,sans-Serif" font-size="10.00" fill="#000000">x = &#39;0&#39; &#160;&#160;</text>
</g>
<!-- s11&#45;&gt;s12 -->
<g id="edge23" class="edge transition">
<title>s11&#45;&gt;s12</title>
<path fill="none" stroke="#000000" d="M150.0235,-343.8015C138.9075,-332.5483 124.4722,-317.9348 112.2221,-305.5335"/>
<polygon fill="#000000" stroke="#000000" points="114.4439,-302.8023 104.9263,-298.1476 109.4638,-307.7216 114.4439,-302.8023"/>
<text text-anchor="start" x="132" y="-318" font-family="Helvetica,sans-Serif" font-size="10.00" fill="#000000">x = &#39;0&#39; &#160;&#160;</text>
</g>
<!-- s13 -->
<g id="node15" class="node state regular">
<title>s13</title>
<polygon fill="#ffffff" fill-opacity="0.003922" stroke="transparent" stroke-width="2" points="195,-216 139,-216 139,-180 195,-180 195,-216"/>
<text text-anchor="start" x="157.3292" y="-194.2" font-family="Helvetica,sans-Serif" font-size="12.00" fill="#000000">s13</text>
<path fill="none" stroke="#000000" stroke-width="2" d="M151.3333,-181C151.3333,-181 182.6667,-181 182.6667,-181 188.3333,-181 194,-186.6667 194,-192.3333 194,-192.3333 194,-203.6667 194,-203.6667 194,-209.3333 188.3333,-215 182.6667,-215 182.6667,-215 151.3333,-215 151.3333,-215 145.6667,-215 140,-209.3333 140,-203.6667 140,-203.6667 140,-192.3333 140,-192.3333 140,-186.6667 145.6667,-181 151.3333,-181"/>
</g>
<!-- s11&#45;&gt;s13 -->
<g id="edge24" class="edge transition">
<title>s11&#45;&gt;s13</title>
<path fill="none" stroke="#000000" d="M181.2289,-343.7035C184.9482,-336.9083 188,-328.9198 188,-321 188,-321 188,-321 188,-239 188,-234.3765 186.929,-229.7503 185.2708,-225.3583"/>
<polygon fill="#000000" stroke="#000000" points="188.3659,-223.7179 180.8904,-216.21 182.0523,-226.741 188.3659,-223.7179"/>
<text text-anchor="start" x="188" y="-277" font-family="Helvetica,sans-Serif" font-size="10.00" fill="#000000">not (x = &#39;0&#39;) &#160;&#160;</text>
</g>
<!-- s12&#45;&gt;s13 -->
<g id="edge26" class="edge transition">
<title>s12&#45;&gt;s13</title>
<path fill="none" stroke="#000000" d="M99.8115,-261.8178C106.5537,-252.7616 115.2197,-241.8794 123.955,-233 127.3239,-229.5755 131.014,-226.1569 134.7721,-222.8719"/>
<polygon fill="#000000" stroke="#000000" points="137.1105,-225.4784 142.501,-216.3573 132.5991,-220.126 137.1105,-225.4784"/>
<text text-anchor="start" x="123" y="-236" font-family="Helvetica,sans-Serif" font-size="10.00" fill="#000000">not (x = &#39;0&#39;) &#160;&#160;</text>
</g>
<!-- s14 -->
<g id="node16" class="node state regular">
<title>s14</title>
<polygon fill="#ffffff" fill-opacity="0.003922" stroke="transparent" stroke-width="2" points="100,-134 44,-134 44,-98 100,-98 100,-134"/>
<text text-anchor="start" x="62.3292" y="-112.2" font-family="Helvetica,sans-Serif" font-size="12.00" fill="#000000">s14</text>
<path fill="none" stroke="#000000" stroke-width="2" d="M56.3333,-99C56.3333,-99 87.6667,-99 87.6667,-99 93.3333,-99 99,-104.6667 99,-110.3333 99,-110.3333 99,-121.6667 99,-121.6667 99,-127.3333 93.3333,-133 87.6667,-133 87.6667,-133 56.3333,-133 56.3333,-133 50.6667,-133 45,-127.3333 45,-121.6667 45,-121.6667 45,-110.3333 45,-110.3333 45,-104.6667 50.6667,-99 56.3333,-99"/>
</g>
<!-- s12&#45;&gt;s14 -->
<g id="edge25" class="edge transition">
<title>s12&#45;&gt;s14</title>
<path fill="none" stroke="#000000" d="M70.1859,-261.7615C65.6636,-255.0935 62,-247.1702 62,-239 62,-239 62,-239 62,-157 62,-152.7139 62.5222,-148.2456 63.3279,-143.9024"/>
<polygon fill="#000000" stroke="#000000" points="66.742,-144.6735 65.6102,-134.1392 59.9257,-143.08 66.742,-144.6735"/>
<text text-anchor="start" x="62" y="-195" font-family="Helvetica,sans-Serif" font-size="10.00" fill="#000000">x = &#39;0&#39; &#160;&#160;</text>
</g>
<!-- s13&#45;&gt;s14 -->
<g id="edge27" class="edge transition">
<title>s13&#45;&gt;s14</title>
<path fill="none" stroke="#000000" d="M145.9164,-179.8015C132.6332,-168.336 115.3086,-153.3822 100.771,-140.8339"/>
<polygon fill="#000000" stroke="#000000" points="102.8816,-138.0322 93.0246,-134.1476 98.3077,-143.3313 102.8816,-138.0322"/>
<text text-anchor="start" x="125" y="-154" font-family="Helvetica,sans-Serif" font-size="10.00" fill="#000000">x = &#39;0&#39; &#160;&#160;</text>
</g>
<!-- s15 -->
<g id="node17" class="node state regular">
<title>s15</title>
<polygon fill="#ffffff" fill-opacity="0.003922" stroke="transparent" stroke-width="2" points="253,-52 197,-52 197,-16 253,-16 253,-52"/>
<text text-anchor="start" x="215.3292" y="-30.2" font-family="Helvetica,sans-Serif" font-size="12.00" fill="#000000">s15</text>
<path fill="none" stroke="#000000" stroke-width="2" d="M209.3333,-17C209.3333,-17 240.6667,-17 240.6667,-17 246.3333,-17 252,-22.6667 252,-28.3333 252,-28.3333 252,-39.6667 252,-39.6667 252,-45.3333 246.3333,-51 240.6667,-51 240.6667,-51 209.3333,-51 209.3333,-51 203.6667,-51 198,-45.3333 198,-39.6667 198,-39.6667 198,-28.3333 198,-28.3333 198,-22.6667 203.6667,-17 209.3333,-17"/>
</g>
<!-- s13&#45;&gt;s15 -->
<g id="edge28" class="edge transition">
<title>s13&#45;&gt;s15</title>
<path fill="none" stroke="#000000" d="M176.7537,-179.7329C179.6187,-172.8103 182,-164.7311 182,-157 182,-157 182,-157 182,-75 182,-68.0697 184.9619,-61.953 189.3309,-56.7002"/>
<polygon fill="#000000" stroke="#000000" points="191.8584,-59.1239 196.5578,-49.6283 186.9626,-54.1208 191.8584,-59.1239"/>
<text text-anchor="start" x="182" y="-113" font-family="Helvetica,sans-Serif" font-size="10.00" fill="#000000">not (x = &#39;0&#39;) &#160;&#160;</text>
</g>
<!-- s14&#45;&gt;s0 -->
<g id="edge29" class="edge transition">
<title>s14&#45;&gt;s0</title>
<path fill="none" stroke="#000000" d="M43.8555,-125.3712C30.3237,-131.827 17,-141.9937 17,-157 17,-581.5 17,-581.5 17,-581.5 17,-678.2757 35,-701.7243 35,-798.5 35,-1223 35,-1223 35,-1223 35,-1242.5637 54.6053,-1252.8232 74.0305,-1258.1869"/>
<polygon fill="#000000" stroke="#000000" points="73.2262,-1261.5932 83.7653,-1260.5075 74.8495,-1254.784 73.2262,-1261.5932"/>
<text text-anchor="start" x="29" y="-687" font-family="Helvetica,sans-Serif" font-size="10.00" fill="#000000">x = &#39;0&#39; &#160;&#160;</text>
</g>
<!-- s14&#45;&gt;s15 -->
<g id="edge30" class="edge transition">
<title>s14&#45;&gt;s15</title>
<path fill="none" stroke="#000000" d="M86.0695,-97.8235C94.4209,-88.0975 105.7442,-76.5932 117.955,-69 138.9304,-55.9566 165.2711,-47.2634 186.5741,-41.8031"/>
<polygon fill="#000000" stroke="#000000" points="187.6876,-45.1346 196.5817,-39.3774 186.0386,-38.3316 187.6876,-45.1346"/>
<text text-anchor="start" x="117" y="-72" font-family="Helvetica,sans-Serif" font-size="10.00" fill="#000000">not (x = &#39;0&#39;) &#160;&#160;</text>
</g>
<!-- s15&#45;&gt;s0 -->
<g id="edge31" class="edge transition">
<title>s15&#45;&gt;s0</title>
<path fill="none" stroke="#000000" d="M253.0829,-40.0271C282.0417,-47.074 323,-59.7385 323,-75 323,-581.5 323,-581.5 323,-581.5 323,-601.4022 325.4759,-607.5552 318,-626 310.0858,-645.5261 289,-642.431 289,-663.5 289,-1223 289,-1223 289,-1223 289,-1237.1278 202.3114,-1251.5618 150.2693,-1258.9541"/>
<polygon fill="#000000" stroke="#000000" points="149.4671,-1255.532 140.0462,-1260.3793 150.4337,-1262.465 149.4671,-1255.532"/>
<text text-anchor="start" x="302" y="-646" font-family="Helvetica,sans-Serif" font-size="10.00" fill="#000000">x = &#39;0&#39; &#160;&#160;</text>
</g>
<!-- s15&#45;&gt;s1 -->
<g id="edge32" class="edge transition">
<title>s15&#45;&gt;s1</title>
<path fill="none" stroke="#000000" d="M253.115,-48.7135C261.7383,-55.3385 269,-64.1411 269,-75 269,-417.5 269,-417.5 269,-417.5 269,-510.2741 256.3721,-533.2618 258.955,-626 260.0765,-666.2691 264,-676.2153 264,-716.5 264,-1141 264,-1141 264,-1141 264,-1153.6567 234.7957,-1165.0033 209.1181,-1172.5336"/>
<polygon fill="#000000" stroke="#000000" points="207.8404,-1169.2567 199.1554,-1175.3248 209.7289,-1175.9972 207.8404,-1169.2567"/>
<text text-anchor="start" x="258" y="-605" font-family="Helvetica,sans-Serif" font-size="10.00" fill="#000000">not (x = &#39;0&#39;) &#160;&#160;</text>
</g>
</g>
</svg>
